<?xml version="1.0" encoding="UTF-8" standalone="no"?>
<svg width="414px" height="124px" viewBox="0 0 414 124" version="1.1" xmlns="http://www.w3.org/2000/svg" xmlns:xlink="http://www.w3.org/1999/xlink" xmlns:sketch="http://www.bohemiancoding.com/sketch/ns">
    <!-- Generator: Sketch 3.0.3 (7892) - http://www.bohemiancoding.com/sketch -->
    <title>Slice 1</title>
    <desc>Created with Sketch.</desc>
    <defs></defs>
    <g id="Page-1" stroke="none" stroke-width="1" fill="none" fill-rule="evenodd" sketch:type="MSPage">
        <g id="CFG_logo" sketch:type="MSLayerGroup" transform="translate(0.000000, 12.000000)">
            <g id="Ebene_2"></g>
            <g id="Ebene_1" sketch:type="MSShapeGroup">
                <g id="Group">
                    <g id="Shape">
                        <path d="M55.843,9.094 L55.843,10.385 L55.843,92.207 L62.688,92.207 L64.6,92.207 L66.232,92.207 L66.232,9.094 L55.843,9.094 Z" fill="#FF8282"></path>
                        <path d="M97.05,100 C97.762,100 98.7,99.358 98.7,98.648 L98.7,1.297 C98.7,0.585 97.762,0.002 97.05,0.002 L64.6,0.002 C63.886,0.002 63.636,0.292 63.636,0.65 L63.636,2.595 L63.636,9.085 C63.636,9.8 63.886,10.39 64.6,10.39 L86.663,10.39 C87.379,10.39 88.312,10.968 88.312,11.682 L88.312,88.261 C88.312,88.976 87.378,89.61 86.663,89.61 L64.6,89.61 C63.886,89.61 63.636,89.852 63.636,90.21 L63.636,92.156 L63.636,98.648 C63.636,99.358 63.886,100 64.6,100 L97.05,100 L97.05,100 Z" fill="#FF645F"></path>
                        <path d="M111.688,9.094 L111.688,10.385 L111.688,92.207 L120.411,92.207 L122.079,92.207 L122.079,9.094 L111.688,9.094 Z" fill="#8CDBA6"></path>
                        <g>
                            <path d="M120.779,99.942 L120.779,89.559 C135.065,89.559 145.035,71.801 145.035,49.974 C145.035,28.146 135.065,10.385 120.779,10.385 L120.779,0 C140.26,0 155.419,22.419 155.419,49.974 C155.419,77.526 140.261,99.942 120.779,99.942" fill="#21D68F"></path>
                            <path d="M12.985,68.016 L12.985,82.336 L12.985,86.941 C12.985,94.71 17.958,100 25.816,100 L28.024,100 L34.382,100 L41.884,100 C42.243,100 42.857,99.358 42.857,98.648 L42.857,90.858 C42.857,90.148 41.951,89.61 41.235,89.61 L33.778,89.61 L29.972,89.61 L27.616,89.61 C24.253,89.61 23.378,88.021 23.378,84.181 L23.378,78.06 L23.378,69.566 L23.378,61.95 C23.378,54.116 20.191,51.233 16.316,49.815 C20.192,48.398 23.378,45.518 23.378,37.69 L23.378,32.28 L23.378,18.552 L23.378,15.291 C23.378,11.519 24.131,10.393 27.616,10.393 L30.549,10.393 L34.27,10.393 L41.885,10.393 C42.244,10.393 42.858,9.801 42.858,9.086 L42.858,1.298 C42.858,0.585 41.952,0.002 41.236,0.002 L34.999,0.002 L29.11,0.002 L25.817,0.002 C17.959,0.002 12.986,5.09 12.986,12.69 L12.986,16.766 L12.986,33.75 C12.986,33.75 12.73,37.648 12.542,38.975 C12.051,42.487 7.747,45.494 5.084,45.454 L1.001,45.454 C0.288,45.454 0,46.015 0,46.729 L0,54.514 C0,55.23 0.288,55.845 1.001,55.845 L4.73,55.845 C8.129,55.798 12.425,58.662 12.751,62.938 C12.848,64.176 12.985,68.016 12.985,68.016" fill="#00ABFA"></path>
                            <path d="M64.6,0.002 L60.919,0.002 L56.812,0.002 C56.099,0.002 55.843,0.585 55.843,1.299 L55.843,3.696 L55.843,9.086 L55.843,10.393 L56.812,10.393 L64.6,10.393 L66.236,10.393 L66.236,9.086 L66.236,1.299 L66.236,0.002 L64.6,0.002 L64.6,0.002 Z" fill="#BD3B38"></path>
                            <path d="M55.843,90.858 L55.843,94.538 L55.843,98.648 C55.843,99.358 56.099,100 56.812,100 L59.212,100 L64.6,100 L66.233,100 L66.233,98.648 L66.233,90.858 L66.233,89.61 L64.6,89.61 L56.812,89.61 L55.843,89.61 L55.843,90.858 L55.843,90.858 Z" fill="#BD3B38"></path>
                            <path d="M120.411,0.002 L116.732,0.002 L112.623,0.002 C111.911,0.002 111.687,0.585 111.687,1.299 L111.687,3.696 L111.687,9.086 L111.687,10.393 L112.623,10.393 L120.411,10.393 L122.079,10.393 L122.079,9.086 L122.079,1.299 L122.079,0.002 L120.411,0.002 L120.411,0.002 Z" fill="#00B05C"></path>
                            <path d="M111.688,90.858 L111.688,94.538 L111.688,98.648 C111.688,99.358 111.912,100 112.624,100 L115.021,100 L120.412,100 L122.08,100 L122.08,98.648 L122.08,90.858 L122.08,89.61 L120.412,89.61 L112.624,89.61 L111.688,89.61 L111.688,90.858 L111.688,90.858 Z" fill="#00B05C"></path>
                            <path d="M176.623,68.016 L176.623,82.336 L176.623,86.941 C176.623,94.71 181.501,100 189.358,100 L191.567,100 L197.927,100 L205.428,100 C205.785,100 206.492,99.358 206.492,98.648 L206.492,90.858 C206.492,90.148 205.492,89.61 204.777,89.61 L197.319,89.61 L193.513,89.61 L191.157,89.61 C187.798,89.61 187.013,88.181 187.013,84.34 L187.013,82.06 L187.013,69.565 L187.013,61.949 C187.013,59.428 186.273,57.143 185.698,55.845 L168.269,55.845 C173.055,57.144 175.103,58.86 176.081,63.03 C176.567,65.104 176.623,68.016 176.623,68.016" fill="#78CCC7"></path>
                            <path d="M175.886,38.971 C174.881,42.372 172.636,44.158 168.625,45.454 L184.979,45.454 C185.995,42.858 187.014,41.126 187.014,37.688 L187.014,32.281 L187.014,18.552 L187.014,15.291 C187.014,11.519 187.671,10.393 191.158,10.393 L194.091,10.393 L197.809,10.393 L205.429,10.393 C205.786,10.393 206.493,9.801 206.493,9.086 L206.493,1.298 C206.493,0.585 205.493,0 204.778,0 L198.542,0 L192.655,0 L189.358,0 C181.501,0 176.623,5.09 176.623,12.69 L176.623,16.769 L176.623,33.749 C176.623,33.75 176.39,37.275 175.886,38.971" fill="#78CCC7"></path>
                            <path d="M178.415,50.73 C181.043,51.696 183.928,53.248 185.699,55.844 L204.778,55.844 C205.493,55.844 206.493,55.229 206.493,54.515 L206.493,46.728 C206.493,46.014 205.493,45.454 204.778,45.454 L184.979,45.454 C183.68,48.052 180.591,49.938 178.415,50.73" fill="#96DBD6"></path>
                            <path d="M164.545,45.454 C163.829,45.454 163.636,46.015 163.636,46.728 L163.636,54.517 C163.636,55.229 163.829,55.844 164.545,55.844 L168.271,55.844 L185.7,55.844 C184.531,53.247 181.623,51.469 179.548,50.659 C181.725,49.862 183.681,48.052 184.981,45.453 L168.627,45.453 L164.545,45.453 L164.545,45.454 Z" fill="#40A6A6"></path>
                        </g>
                    </g>
                </g>
            </g>
        </g>
        <path d="M265.235617,9.42722656 C261.640953,9.42722656 258.278,10.9766328 256.489992,13.8844219 C255.17875,16.0169609 255.085672,18.1486797 255.085672,20.4195781 L255.085672,22.9326328 L249.527945,22.9326328 L249.527945,26.1222813 L255.085672,26.1222813 L255.085672,47 L258.951914,47 L258.951914,26.1222813 L267.312648,26.1222813 L267.312648,22.9326328 L258.951914,22.9326328 L258.951914,20.9511953 C258.951914,19.0980547 258.927523,17.1373437 259.883352,15.4245859 C260.938492,13.5340391 262.913313,12.5913359 265.029117,12.5913359 C267.492734,12.5913359 269.542422,13.8915859 270.618453,15.5190312 C270.798156,15.7909375 270.753312,15.9440078 270.772562,16.1832109 C270.803406,16.5668438 271.054859,16.6675234 271.227234,16.6500234 L273.063695,12.9287578 C271.233086,10.7256719 268.453703,9.42722656 265.235617,9.42722656 Z M299.76432,34.3233828 C299.76432,25.4899844 294.189094,20.8542891 288.374719,20.8542891 C281.854766,20.8542891 276.265047,26.5021953 276.265047,34.4067812 C276.265047,42.1897969 281.807297,47.6765937 288.255227,47.6765937 C294.313508,47.6765937 299.76432,42.8049219 299.76432,34.3233828 Z M288.100078,24.2808984 C291.790883,24.2808984 295.707328,27.4657344 295.707328,34.4906172 C295.707328,40.9300156 292.020734,44.1973203 288.286453,44.1973203 C284.209227,44.1973203 280.523563,40.3682109 280.523563,34.0574922 C280.523563,27.7859844 284.187297,24.2808984 288.100078,24.2808984 Z M307.557727,21.4344688 L307.557727,47.0483438 L311.617289,47.0483438 L311.617289,34.5797031 C311.617289,33.035875 311.677063,31.3375 313.416125,28.5879219 C315.740891,24.9124844 318.794641,24.2759219 320.603594,24.2759219 C322.756148,24.2759219 324.109555,25.2745156 324.82782,26.1921719 C325.163984,26.6216328 325.34757,27.0644375 325.777359,27.4754688 L327.662164,23.6092266 C326.052711,21.9605625 323.697266,20.8157344 320.823875,20.8157344 C317.086477,20.8157344 313.292859,22.7062813 311.617289,26.3639453 L311.762266,21.4344688 L307.557727,21.4344688 Z M261.525672,73.7678516 C256.885164,73.7678516 248.024313,76.6606016 248.024313,91.9705859 C248.024313,105.176797 255.418664,109.533969 261.50768,109.533969 C264.73982,109.533969 268.469344,108.329094 271.758797,105.906984 L271.758797,92.2785312 L261.803266,92.2785312 L261.803266,95.6614453 L268.134219,95.6614453 L268.134219,103.973891 C266.176242,105.369242 263.933016,106.100469 261.853797,106.100469 C259.596352,106.100469 257.116055,105.208078 255.218289,103.045242 C252.305195,99.7253281 251.895695,94.8295937 251.895695,91.1440391 C251.895695,87.8946719 252.285836,84.7645234 253.650891,82.1956328 C255.451203,78.8079062 258.561937,77.1968672 261.501336,77.1968672 C264.615516,77.1968672 267.094445,78.9804453 268.161672,81.3187734 C268.333555,81.6952422 268.469289,82.1385391 268.9075,82.4195781 L271.662164,79.6165703 C269.667219,76.0006875 265.824656,73.7678516 261.525672,73.7678516 Z M279.944367,83.3861797 L279.944367,86.6724609 L286.130344,86.6724609 L286.130344,105.762008 L279.60607,105.762008 L279.60607,109 L296.182563,109 L296.182563,105.762008 L290.189906,105.762008 L290.189906,83.3861797 L279.944367,83.3861797 Z M288.256922,72.2707266 C286.65332,72.2707266 285.356188,73.5628281 285.356188,75.1469063 C285.356188,76.7306563 286.653156,78.0221563 288.256266,78.0221563 C289.860359,78.0221563 291.157328,76.7301094 291.157328,75.1465781 C291.157328,73.5620078 289.859867,72.2707266 288.256922,72.2707266 Z M316.48382,82.7930937 C310.373367,82.7930937 304.720813,87.1626797 304.720813,96.5018281 C304.720813,105.026133 310.056289,109.586852 317.005211,109.586852 C320.656805,109.586852 323.973547,108.250562 326.164,105.617031 L323.940898,103.442273 C322.273422,105.309797 319.861484,106.320641 317.317695,106.320641 C313.895023,106.320641 308.939789,104.433703 308.635344,96.7730234 L326.79225,96.7730234 C326.947453,95.0152578 326.866242,93.3721172 326.614953,91.8869687 C325.452898,85.0186562 320.678133,82.7930937 316.48382,82.7930937 Z M308.76632,93.6800078 C309.563117,87.6462813 313.45725,85.8910312 316.202781,85.8910312 C320.349187,85.8910312 323.309859,89.5315781 322.829375,93.6800078 L308.76632,93.6800078 Z M333.093016,109 L336.910914,109 L336.910914,85.2226406 C336.910914,82.7480312 336.946133,79.8845937 338.540437,77.5690703 C339.852609,75.663375 341.783953,74.774375 343.617188,74.774375 C346.94607,74.774375 349.723375,77.611125 349.723375,81.3020391 C349.723375,83.9387969 348.262016,86.3474531 346.151297,87.2919062 C345.214992,87.7108672 344.416336,87.7356953 343.580164,87.7356953 L341.985367,87.7356953 L341.985367,90.9253437 L343.676797,90.9253437 C345.501281,90.9253437 347.014922,91.0521641 348.596102,92.0426094 C350.706656,93.364625 352.285594,95.9378359 352.285594,98.8801328 C352.285594,102.935266 349.229766,106.005313 345.660422,106.005313 C344.287602,106.005313 342.959133,105.544133 341.88868,104.698828 L339.907242,107.840133 C341.643242,108.97725 343.666023,109.581328 345.726539,109.581328 C351.466867,109.581328 356.000734,104.968 356.000734,98.8839609 C356.000734,94.2309844 353.288836,90.1965781 349.089547,88.8955625 C351.839453,87.4798125 353.545867,84.6191094 353.545867,81.3994922 C353.545867,76.0744063 348.98832,71.545625 343.401281,71.545625 C339.583328,71.545625 335.979641,73.7011875 334.262945,77.6007891 C333.125227,80.1851563 333.093016,82.7672266 333.093016,85.3192734 L333.093016,109 Z M372.48382,82.7930937 C366.373367,82.7930937 360.720812,87.1626797 360.720812,96.5018281 C360.720812,105.026133 366.056289,109.586852 373.005211,109.586852 C376.656805,109.586852 379.973547,108.250562 382.164,105.617031 L379.940898,103.442273 C378.273422,105.309797 375.861484,106.320641 373.317695,106.320641 C369.895023,106.320641 364.939789,104.433703 364.635344,96.7730234 L382.79225,96.7730234 C382.947453,95.0152578 382.866242,93.3721172 382.614953,91.8869687 C381.452898,85.0186562 376.678133,82.7930937 372.48382,82.7930937 Z M364.76632,93.6800078 C365.563117,87.6462813 369.45725,85.8910312 372.202781,85.8910312 C376.349187,85.8910312 379.309859,89.5315781 378.829375,93.6800078 L364.76632,93.6800078 Z M389.817898,109 L393.925805,109 L393.925805,94.2599687 C393.925805,92.5369844 394.132961,91.2854062 395.19718,89.8673047 C396.172586,88.5675469 398.631117,86.3061094 401.336453,86.3061094 C402.620406,86.3061094 403.886039,86.8280469 404.804953,87.9260625 C406.189586,89.5806875 406.201125,91.7762812 406.201125,93.583375 L406.201125,109 L410.164,109 L410.164,93.4866875 C410.164,91.4891172 410.150875,89.3781797 409.24093,87.3216016 C407.967203,84.443125 405.344773,82.8061094 402.429438,82.8061094 C398.957711,82.8061094 395.804375,85.0775547 393.925805,87.9290156 L393.925805,83.4344688 L389.817898,83.4344688 L389.817898,109 Z" id="for" fill="#000000" sketch:type="MSShapeGroup"></path>
    </g>
</svg>