<?xml version="1.0" encoding="UTF-8" standalone="no"?>
<svg width="414px" height="124px" viewBox="0 0 414 124" version="1.1" xmlns="http://www.w3.org/2000/svg" xmlns:xlink="http://www.w3.org/1999/xlink" xmlns:sketch="http://www.bohemiancoding.com/sketch/ns">
    <!-- Generator: Sketch 3.0.3 (7892) - http://www.bohemiancoding.com/sketch -->
    <title>Slice 1</title>
    <desc>Created with Sketch.</desc>
    <defs></defs>
    <g id="Page-1" stroke="none" stroke-width="1" fill="none" fill-rule="evenodd" sketch:type="MSPage">
        <g id="CFG_logo" sketch:type="MSLayerGroup" transform="translate(0.000000, 12.000000)">
            <g id="Ebene_2"></g>
            <g id="Ebene_1" sketch:type="MSShapeGroup">
                <g id="Group">
                    <g id="Shape">
                        <path d="M55.843,9.094 L55.843,10.385 L55.843,92.207 L62.688,92.207 L64.6,92.207 L66.232,92.207 L66.232,9.094 L55.843,9.094 Z" fill="#FF8282"></path>
                        <path d="M97.05,100 C97.762,100 98.7,99.358 98.7,98.648 L98.7,1.297 C98.7,0.585 97.762,0.002 97.05,0.002 L64.6,0.002 C63.886,0.002 63.636,0.292 63.636,0.65 L63.636,2.595 L63.636,9.085 C63.636,9.8 63.886,10.39 64.6,10.39 L86.663,10.39 C87.379,10.39 88.312,10.968 88.312,11.682 L88.312,88.261 C88.312,88.976 87.378,89.61 86.663,89.61 L64.6,89.61 C63.886,89.61 63.636,89.852 63.636,90.21 L63.636,92.156 L63.636,98.648 C63.636,99.358 63.886,100 64.6,100 L97.05,100 L97.05,100 Z" fill="#FF645F"></path>
                        <path d="M111.688,9.094 L111.688,10.385 L111.688,92.207 L120.411,92.207 L122.079,92.207 L122.079,9.094 L111.688,9.094 Z" fill="#8CDBA6"></path>
                        <g>
                            <path d="M120.779,99.942 L120.779,89.559 C135.065,89.559 145.035,71.801 145.035,49.974 C145.035,28.146 135.065,10.385 120.779,10.385 L120.779,0 C140.26,0 155.419,22.419 155.419,49.974 C155.419,77.526 140.261,99.942 120.779,99.942" fill="#21D68F"></path>
                            <path d="M12.985,68.016 L12.985,82.336 L12.985,86.941 C12.985,94.71 17.958,100 25.816,100 L28.024,100 L34.382,100 L41.884,100 C42.243,100 42.857,99.358 42.857,98.648 L42.857,90.858 C42.857,90.148 41.951,89.61 41.235,89.61 L33.778,89.61 L29.972,89.61 L27.616,89.61 C24.253,89.61 23.378,88.021 23.378,84.181 L23.378,78.06 L23.378,69.566 L23.378,61.95 C23.378,54.116 20.191,51.233 16.316,49.815 C20.192,48.398 23.378,45.518 23.378,37.69 L23.378,32.28 L23.378,18.552 L23.378,15.291 C23.378,11.519 24.131,10.393 27.616,10.393 L30.549,10.393 L34.27,10.393 L41.885,10.393 C42.244,10.393 42.858,9.801 42.858,9.086 L42.858,1.298 C42.858,0.585 41.952,0.002 41.236,0.002 L34.999,0.002 L29.11,0.002 L25.817,0.002 C17.959,0.002 12.986,5.09 12.986,12.69 L12.986,16.766 L12.986,33.75 C12.986,33.75 12.73,37.648 12.542,38.975 C12.051,42.487 7.747,45.494 5.084,45.454 L1.001,45.454 C0.288,45.454 0,46.015 0,46.729 L0,54.514 C0,55.23 0.288,55.845 1.001,55.845 L4.73,55.845 C8.129,55.798 12.425,58.662 12.751,62.938 C12.848,64.176 12.985,68.016 12.985,68.016" fill="#00ABFA"></path>
                            <path d="M64.6,0.002 L60.919,0.002 L56.812,0.002 C56.099,0.002 55.843,0.585 55.843,1.299 L55.843,3.696 L55.843,9.086 L55.843,10.393 L56.812,10.393 L64.6,10.393 L66.236,10.393 L66.236,9.086 L66.236,1.299 L66.236,0.002 L64.6,0.002 L64.6,0.002 Z" fill="#BD3B38"></path>
                            <path d="M55.843,90.858 L55.843,94.538 L55.843,98.648 C55.843,99.358 56.099,100 56.812,100 L59.212,100 L64.6,100 L66.233,100 L66.233,98.648 L66.233,90.858 L66.233,89.61 L64.6,89.61 L56.812,89.61 L55.843,89.61 L55.843,90.858 L55.843,90.858 Z" fill="#BD3B38"></path>
                            <path d="M120.411,0.002 L116.732,0.002 L112.623,0.002 C111.911,0.002 111.687,0.585 111.687,1.299 L111.687,3.696 L111.687,9.086 L111.687,10.393 L112.623,10.393 L120.411,10.393 L122.079,10.393 L122.079,9.086 L122.079,1.299 L122.079,0.002 L120.411,0.002 L120.411,0.002 Z" fill="#00B05C"></path>
                            <path d="M111.688,90.858 L111.688,94.538 L111.688,98.648 C111.688,99.358 111.912,100 112.624,100 L115.021,100 L120.412,100 L122.08,100 L122.08,98.648 L122.08,90.858 L122.08,89.61 L120.412,89.61 L112.624,89.61 L111.688,89.61 L111.688,90.858 L111.688,90.858 Z" fill="#00B05C"></path>
                            <path d="M176.623,68.016 L176.623,82.336 L176.623,86.941 C176.623,94.71 181.501,100 189.358,100 L191.567,100 L197.927,100 L205.428,100 C205.785,100 206.492,99.358 206.492,98.648 L206.492,90.858 C206.492,90.148 205.492,89.61 204.777,89.61 L197.319,89.61 L193.513,89.61 L191.157,89.61 C187.798,89.61 187.013,88.181 187.013,84.34 L187.013,82.06 L187.013,69.565 L187.013,61.949 C187.013,59.428 186.273,57.143 185.698,55.845 L168.269,55.845 C173.055,57.144 175.103,58.86 176.081,63.03 C176.567,65.104 176.623,68.016 176.623,68.016" fill="#78CCC7"></path>
                            <path d="M175.886,38.971 C174.881,42.372 172.636,44.158 168.625,45.454 L184.979,45.454 C185.995,42.858 187.014,41.126 187.014,37.688 L187.014,32.281 L187.014,18.552 L187.014,15.291 C187.014,11.519 187.671,10.393 191.158,10.393 L194.091,10.393 L197.809,10.393 L205.429,10.393 C205.786,10.393 206.493,9.801 206.493,9.086 L206.493,1.298 C206.493,0.585 205.493,0 204.778,0 L198.542,0 L192.655,0 L189.358,0 C181.501,0 176.623,5.09 176.623,12.69 L176.623,16.769 L176.623,33.749 C176.623,33.75 176.39,37.275 175.886,38.971" fill="#78CCC7"></path>
                            <path d="M178.415,50.73 C181.043,51.696 183.928,53.248 185.699,55.844 L204.778,55.844 C205.493,55.844 206.493,55.229 206.493,54.515 L206.493,46.728 C206.493,46.014 205.493,45.454 204.778,45.454 L184.979,45.454 C183.68,48.052 180.591,49.938 178.415,50.73" fill="#96DBD6"></path>
                            <path d="M164.545,45.454 C163.829,45.454 163.636,46.015 163.636,46.728 L163.636,54.517 C163.636,55.229 163.829,55.844 164.545,55.844 L168.271,55.844 L185.7,55.844 C184.531,53.247 181.623,51.469 179.548,50.659 C181.725,49.862 183.681,48.052 184.981,45.453 L168.627,45.453 L164.545,45.453 L164.545,45.454 Z" fill="#40A6A6"></path>
                        </g>
                    </g>
                </g>
            </g>
        </g>
        <text id="for" sketch:type="MSTextLayer" font-family="Inconsolata" font-size="56" font-weight="420" fill="#000000">
            <tspan x="246" y="47">for</tspan>
            <tspan x="246" y="109">Gießen</tspan>
        </text>
    </g>
</svg>